<svg width="50" height="50" viewBox="0 0 50 50" fill="none" xmlns="http://www.w3.org/2000/svg">
<path d="M28.1252 26.0417C28.1252 25.4892 27.9057 24.9593 27.515 24.5685C27.1243 24.1778 26.5944 23.9584 26.0418 23.9584H15.6252C15.0726 23.9584 14.5427 24.1778 14.152 24.5685C13.7613 24.9593 13.5418 25.4892 13.5418 26.0417C13.5418 26.5942 13.7613 27.1241 14.152 27.5148C14.5427 27.9055 15.0726 28.125 15.6252 28.125H26.0418C26.5944 28.125 27.1243 27.9055 27.515 27.5148C27.9057 27.1241 28.1252 26.5942 28.1252 26.0417ZM38.5418 36.4584C37.6569 36.4613 36.7959 36.7458 36.0835 37.2709L32.4377 35.6042L36.4168 33.7709C37.0458 34.1526 37.7646 34.3611 38.5002 34.375C39.3242 34.375 40.1298 34.1307 40.815 33.6728C41.5002 33.215 42.0343 32.5642 42.3497 31.8029C42.665 31.0415 42.7475 30.2037 42.5868 29.3955C42.426 28.5872 42.0292 27.8448 41.4464 27.2621C40.8637 26.6794 40.1213 26.2825 39.313 26.1217C38.5048 25.961 37.667 26.0435 36.9056 26.3589C36.1443 26.6742 35.4935 27.2083 35.0357 27.8935C34.5779 28.5787 34.3335 29.3843 34.3335 30.2084L30.396 32.0209C29.8565 31.6381 29.2336 31.3892 28.5789 31.2949C27.9242 31.2006 27.2564 31.2636 26.6308 31.4786C26.0052 31.6935 25.4398 32.0544 24.9813 32.5312C24.5228 33.0081 24.1845 33.5872 23.9943 34.2208C23.804 34.8543 23.7674 35.524 23.8873 36.1746C24.0072 36.8251 24.2804 37.4377 24.684 37.9618C25.0877 38.4858 25.6104 38.9062 26.2087 39.1882C26.8071 39.4702 27.464 39.6056 28.1252 39.5834C28.7963 39.5837 29.4563 39.4115 30.0418 39.0834L34.4168 41.1667C34.5091 41.9638 34.8297 42.7174 35.3399 43.3367C35.8501 43.9561 36.5284 44.415 37.2931 44.6581C38.0578 44.9013 38.8765 44.9185 39.6508 44.7077C40.4251 44.4968 41.1219 44.0668 41.6577 43.4694C42.1935 42.872 42.5454 42.1326 42.6711 41.34C42.7968 40.5475 42.6909 39.7355 42.3662 39.0016C42.0416 38.2678 41.5119 37.6433 40.8408 37.2032C40.1698 36.7631 39.3859 36.5262 38.5835 36.5209L38.5418 36.4584ZM21.8752 40.625H11.4585C10.906 40.625 10.3761 40.4055 9.98536 40.0148C9.59466 39.6241 9.37516 39.0942 9.37516 38.5417V9.37502C9.37516 8.82249 9.59466 8.29258 9.98536 7.90188C10.3761 7.51118 10.906 7.29169 11.4585 7.29169H21.8752V13.5417C21.8752 15.1993 22.5336 16.789 23.7057 17.9611C24.8778 19.1332 26.4676 19.7917 28.1252 19.7917H34.3752C34.3752 20.3442 34.5947 20.8741 34.9854 21.2648C35.3761 21.6555 35.906 21.875 36.4585 21.875C37.011 21.875 37.5409 21.6555 37.9316 21.2648C38.3223 20.8741 38.5418 20.3442 38.5418 19.7917V17.7084C38.5418 17.7084 38.5418 17.7084 38.5418 17.5834C38.5201 17.392 38.4782 17.2034 38.4168 17.0209V16.8334C38.3167 16.6191 38.183 16.4222 38.021 16.25V16.25L25.521 3.75002C25.3488 3.58797 25.1519 3.45436 24.9377 3.35419C24.8687 3.34212 24.7982 3.34212 24.7293 3.35419C24.5545 3.29069 24.3726 3.24872 24.1877 3.22919H11.4585C9.80089 3.22919 8.21118 3.88767 7.03908 5.05977C5.86698 6.23187 5.2085 7.82158 5.2085 9.47919V38.6459C5.2085 40.3035 5.86698 41.8932 7.03908 43.0653C8.21118 44.2374 9.80089 44.8959 11.4585 44.8959H21.8752C22.4277 44.8959 22.9576 44.6764 23.3483 44.2857C23.739 43.895 23.9585 43.3651 23.9585 42.8125C23.9585 42.26 23.739 41.7301 23.3483 41.3394C22.9576 40.9487 22.4277 40.7292 21.8752 40.7292V40.625ZM26.0418 10.2292L31.4377 15.625H28.1252C27.5726 15.625 27.0427 15.4055 26.652 15.0148C26.2613 14.6241 26.0418 14.0942 26.0418 13.5417V10.2292ZM15.6252 32.2917C15.0726 32.2917 14.5427 32.5112 14.152 32.9019C13.7613 33.2926 13.5418 33.8225 13.5418 34.375C13.5418 34.9276 13.7613 35.4575 14.152 35.8482C14.5427 36.2389 15.0726 36.4584 15.6252 36.4584H17.7085C18.261 36.4584 18.7909 36.2389 19.1816 35.8482C19.5723 35.4575 19.7918 34.9276 19.7918 34.375C19.7918 33.8225 19.5723 33.2926 19.1816 32.9019C18.7909 32.5112 18.261 32.2917 17.7085 32.2917H15.6252ZM15.6252 19.7917H17.7085C18.261 19.7917 18.7909 19.5722 19.1816 19.1815C19.5723 18.7908 19.7918 18.2609 19.7918 17.7084C19.7918 17.1558 19.5723 16.6259 19.1816 16.2352C18.7909 15.8445 18.261 15.625 17.7085 15.625H15.6252C15.0726 15.625 14.5427 15.8445 14.152 16.2352C13.7613 16.6259 13.5418 17.1558 13.5418 17.7084C13.5418 18.2609 13.7613 18.7908 14.152 19.1815C14.5427 19.5722 15.0726 19.7917 15.6252 19.7917Z" fill="#7F55D6"/>
</svg>
